{
  "source": "C:\\Users\\Peter\\Desktop\\stuff\\MIUN\\quantitative_research\\video_compression\\videos\\BVI-HD\\BVI-HD_CDVL_videos\\ORIG\\BubblesPitcher_1920x1080_60fps.mp4",
  "output": "C:\\Users\\Peter\\Desktop\\stuff\\MIUN\\quantitative_research\\video_compression\\compressed_videos\\BVI-HD\\av1\\1.5\\BubblesPitcher_1920x1080_60fps_av1.mkv",
  "codec": "av1",
  "ok": "Input #0, mov,mp4,m4a,3gp,3g2,mj2, from 'C:\\Users\\Peter\\Desktop\\stuff\\MIUN\\quantitative_research\\video_compression\\videos\\BVI-HD\\BVI-HD_CDVL_videos\\ORIG\\BubblesPitcher_1920x1080_60fps.mp4':\n  Metadata:\n    major_brand     : isom\n    minor_version   : 512\n    compatible_brands: isomiso2avc1mp41\n    encoder         : Lavf54.28.101\n  Duration: 00:00:05.00, start: 0.000000, bitrate: 188849 kb/s\n  Stream #0:0[0x1](und): Video: h264 (High 4:4:4 Predictive) (avc1 / 0x31637661), yuv420p(progressive), 1920x1080, 188844 kb/s, 60 fps, 60 tbr, 60 tbn (default)\n    Metadata:\n      handler_name    : VideoHandler\n      vendor_id       : [0][0][0][0]\n[out#0/matroska @ 00000278c849cd80] Codec AVOption b:a (set bitrate (in bits/s)) has not been used for any stream. The most likely reason is either wrong type (e.g. a video option with no video streams) or that it is a private option of some decoder which was not actually used for any stream.\nStream mapping:\n  Stream #0:0 -> #0:0 (h264 (native) -> av1 (libsvtav1))\nPress [q] to stop, [?] for help\nSvt[info]: -------------------------------------------\nSvt[info]: SVT [version]:\tSVT-AV1 Encoder Lib v3.1.0-19-g6ecfe8ec\nSvt[info]: SVT [build]  :\tGCC 15.2.0\t 64 bit\nSvt[info]: LIB Build date: Aug 17 2025 11:37:13\nSvt[info]: -------------------------------------------\nSvt[info]: Level of Parallelism: 5\nSvt[info]: Number of PPCS 93\nSvt[info]: [asm level on system : up to avx2]\nSvt[info]: [asm level selected : up to avx2]\nSvt[info]: -------------------------------------------\nSvt[info]: SVT [config]: main profile\ttier (auto)\tlevel (auto)\nSvt[info]: SVT [config]: width / height / fps numerator / fps denominator \t\t: 1920 / 1080 / 60 / 1\nSvt[info]: SVT [config]: bit-depth / color format \t\t\t\t\t: 8 / YUV420\nSvt[info]: SVT [config]: preset / tune / pred struct \t\t\t\t\t: 4 / PSNR / random access\nSvt[info]: SVT [config]: gop size / mini-gop size / key-frame type \t\t\t: 321 / 16 / key frame\nSvt[info]: SVT [config]: BRC mode / target bitrate (kbps)\t\t\t\t: VBR / 1500 \nSvt[info]: SVT [config]: AQ mode / Variance Boost \t\t\t\t\t: 2 / 0\nSvt[info]: SVT [config]: sharpness / luminance-based QP bias \t\t\t\t: 0 / 0\nSvt[info]: SVT [config]: QP scale compress strength \t\t\t\t\t: 0\nSvt[info]: -------------------------------------------\nOutput #0, matroska, to 'C:\\Users\\Peter\\Desktop\\stuff\\MIUN\\quantitative_research\\video_compression\\compressed_videos\\BVI-HD\\av1\\1.5\\BubblesPitcher_1920x1080_60fps_av1.mkv':\n  Metadata:\n    major_brand     : isom\n    minor_version   : 512\n    compatible_brands: isomiso2avc1mp41\n    encoder         : Lavf62.3.100\n  Stream #0:0(und): Video: av1 (AV01 / 0x31305641), yuv420p(tv, progressive), 1920x1080, q=2-31, 1500 kb/s, 60 fps, 1k tbn (default)\n    Metadata:\n      encoder         : Lavc62.11.100 libsvtav1\n      handler_name    : VideoHandler\n      vendor_id       : [0][0][0][0]\n    Side data:\n      cpb: bitrate max/min/avg: 0/0/1500000 buffer size: 1500000 vbv_delay: N/A\nframe=    0 fps=0.0 q=0.0 size=       0KiB time=N/A bitrate=N/A speed=N/A elapsed=0:00:01.02    \nframe=    0 fps=0.0 q=0.0 size=       0KiB time=N/A bitrate=N/A speed=N/A elapsed=0:00:01.61    \nframe=    0 fps=0.0 q=0.0 size=       0KiB time=N/A bitrate=N/A speed=N/A elapsed=0:00:02.19    \nframe=    0 fps=0.0 q=0.0 size=       0KiB time=N/A bitrate=N/A speed=N/A elapsed=0:00:02.72    \nframe=    0 fps=0.0 q=0.0 size=       0KiB time=N/A bitrate=N/A speed=N/A elapsed=0:00:03.24    \nframe=    0 fps=0.0 q=0.0 size=       0KiB time=N/A bitrate=N/A speed=N/A elapsed=0:00:03.76    \nframe=    0 fps=0.0 q=0.0 size=       0KiB time=N/A bitrate=N/A speed=N/A elapsed=0:00:04.29    \nframe=    0 fps=0.0 q=0.0 size=       0KiB time=N/A bitrate=N/A speed=N/A elapsed=0:00:04.84    \nframe=    0 fps=0.0 q=0.0 size=       0KiB time=N/A bitrate=N/A speed=N/A elapsed=0:00:05.38    \nframe=    0 fps=0.0 q=0.0 size=       0KiB time=N/A bitrate=N/A speed=N/A elapsed=0:00:05.92    \nframe=    0 fps=0.0 q=0.0 size=       0KiB time=N/A bitrate=N/A speed=N/A elapsed=0:00:06.50    \nframe=    4 fps=0.6 q=41.0 size=       1KiB time=00:00:00.05 bitrate= 113.9kbits/s speed=0.00712x elapsed=0:00:07.02    \nframe=   12 fps=1.6 q=35.0 size=       1KiB time=00:00:00.18 bitrate=  31.1kbits/s speed=0.0241x elapsed=0:00:07.61    \nframe=   20 fps=2.4 q=33.0 size=       1KiB time=00:00:00.31 bitrate=  18.0kbits/s speed=0.0386x elapsed=0:00:08.20    \nframe=   22 fps=2.5 q=33.0 size=       1KiB time=00:00:00.33 bitrate=  17.1kbits/s speed=0.0379x elapsed=0:00:08.78    \nframe=   27 fps=2.9 q=33.0 size=       1KiB time=00:00:00.43 bitrate=  13.1kbits/s speed=0.0459x elapsed=0:00:09.44    \nframe=   31 fps=3.1 q=34.0 size=       1KiB time=00:00:00.50 bitrate=  11.4kbits/s speed=0.05x elapsed=0:00:10.00    \nframe=   37 fps=3.5 q=33.0 size=       1KiB time=00:00:00.60 bitrate=   9.5kbits/s speed=0.0567x elapsed=0:00:10.58    \nframe=   40 fps=3.6 q=33.0 size=       1KiB time=00:00:00.63 bitrate=   9.0kbits/s speed=0.0566x elapsed=0:00:11.19    \nframe=   44 fps=3.7 q=34.0 size=       1KiB time=00:00:00.71 bitrate=   7.9kbits/s speed=0.0609x elapsed=0:00:11.77    \nframe=   51 fps=4.1 q=37.0 size=       1KiB time=00:00:00.83 bitrate=   6.8kbits/s speed=0.0677x elapsed=0:00:12.31    \nframe=   54 fps=4.2 q=37.0 size=       1KiB time=00:00:00.86 bitrate=   6.6kbits/s speed=0.0673x elapsed=0:00:12.88    \nframe=   56 fps=4.1 q=37.0 size=       1KiB time=00:00:00.91 bitrate=   6.2kbits/s speed=0.0676x elapsed=0:00:13.56    \nframe=   60 fps=4.3 q=38.0 size=       1KiB time=00:00:00.98 bitrate=   5.8kbits/s speed=0.0697x elapsed=0:00:14.09    \nframe=   67 fps=4.6 q=39.0 size=       1KiB time=00:00:01.10 bitrate=   5.2kbits/s speed=0.0751x elapsed=0:00:14.63    \nframe=   70 fps=4.6 q=37.0 size=       1KiB time=00:00:01.15 bitrate=   5.0kbits/s speed=0.0757x elapsed=0:00:15.19    \nframe=   71 fps=4.5 q=39.0 size=       1KiB time=00:00:01.16 bitrate=   4.9kbits/s speed=0.0736x elapsed=0:00:15.85    \nframe=   77 fps=4.7 q=35.0 size=       1KiB time=00:00:01.26 bitrate=   4.5kbits/s speed=0.0773x elapsed=0:00:16.39    \nframe=   82 fps=4.8 q=39.0 size=       1KiB time=00:00:01.35 bitrate=   4.2kbits/s speed=0.0798x elapsed=0:00:16.92    \nframe=   86 fps=4.9 q=39.0 size=       1KiB time=00:00:01.41 bitrate=   4.0kbits/s speed=0.081x elapsed=0:00:17.49    \nframe=   90 fps=4.9 q=39.0 size=       1KiB time=00:00:01.45 bitrate=   3.9kbits/s speed=0.0795x elapsed=0:00:18.24    \nframe=   92 fps=4.9 q=39.0 size=       1KiB time=00:00:01.51 bitrate=   3.8kbits/s speed=0.0801x elapsed=0:00:18.94    \nframe=  100 fps=5.1 q=41.0 size=       1KiB time=00:00:01.65 bitrate=   3.5kbits/s speed=0.0845x elapsed=0:00:19.53    \nframe=  102 fps=5.1 q=42.0 size=       1KiB time=00:00:01.68 bitrate=   3.4kbits/s speed=0.0837x elapsed=0:00:20.11    \nframe=  108 fps=5.2 q=42.0 size=       1KiB time=00:00:01.75 bitrate=   3.3kbits/s speed=0.0841x elapsed=0:00:20.81    \nframe=  112 fps=5.2 q=42.0 size=       1KiB time=00:00:01.83 bitrate=   3.1kbits/s speed=0.0854x elapsed=0:00:21.46    \nframe=  117 fps=5.3 q=42.0 size=       1KiB time=00:00:01.93 bitrate=   2.9kbits/s speed=0.0874x elapsed=0:00:22.11    \nframe=  119 fps=5.2 q=44.0 size=       1KiB time=00:00:01.95 bitrate=   2.9kbits/s speed=0.0859x elapsed=0:00:22.69    \nframe=  122 fps=5.2 q=41.0 size=       1KiB time=00:00:02.01 bitrate=   2.8kbits/s speed=0.0861x elapsed=0:00:23.43    \nframe=  126 fps=5.2 q=43.0 size=       1KiB time=00:00:02.06 bitrate=   2.8kbits/s speed=0.0856x elapsed=0:00:24.15    \nframe=  130 fps=5.2 q=43.0 size=       1KiB time=00:00:02.15 bitrate=   2.6kbits/s speed=0.0867x elapsed=0:00:24.80    \nframe=  133 fps=5.3 q=42.0 size=       1KiB time=00:00:02.20 bitrate=   2.6kbits/s speed=0.0869x elapsed=0:00:25.31    \nframe=  134 fps=5.2 q=46.0 size=       1KiB time=00:00:02.21 bitrate=   2.6kbits/s speed=0.0857x elapsed=0:00:25.86    \nframe=  138 fps=5.2 q=49.0 size=       1KiB time=00:00:02.28 bitrate=   2.5kbits/s speed=0.086x elapsed=0:00:26.54    \nframe=  143 fps=5.3 q=48.0 size=       1KiB time=00:00:02.35 bitrate=   2.4kbits/s speed=0.0865x elapsed=0:00:27.17    \nframe=  146 fps=5.2 q=53.0 size=       1KiB time=00:00:02.41 bitrate=   2.4kbits/s speed=0.0869x elapsed=0:00:27.82    \nframe=  149 fps=5.2 q=47.0 size=       1KiB time=00:00:02.46 bitrate=   2.3kbits/s speed=0.0869x elapsed=0:00:28.38    \nframe=  152 fps=5.2 q=53.0 size=       1KiB time=00:00:02.50 bitrate=   2.3kbits/s speed=0.086x elapsed=0:00:29.08    \nframe=  155 fps=5.2 q=51.0 size=       1KiB time=00:00:02.55 bitrate=   2.2kbits/s speed=0.0856x elapsed=0:00:29.79    \nframe=  156 fps=5.1 q=54.0 size=       1KiB time=00:00:02.58 bitrate=   2.2kbits/s speed=0.0847x elapsed=0:00:30.49    \nframe=  159 fps=5.1 q=50.0 size=       1KiB time=00:00:02.63 bitrate=   2.2kbits/s speed=0.0843x elapsed=0:00:31.23    \nframe=  164 fps=5.2 q=54.0 size=       1KiB time=00:00:02.68 bitrate=   2.1kbits/s speed=0.0843x elapsed=0:00:31.81    \nframe=  165 fps=5.1 q=50.0 size=       1KiB time=00:00:02.73 bitrate=   2.1kbits/s speed=0.0842x elapsed=0:00:32.46    \nframe=  168 fps=5.1 q=54.0 size=       1KiB time=00:00:02.76 bitrate=   2.1kbits/s speed=0.0833x elapsed=0:00:33.21    \nframe=  171 fps=5.0 q=53.0 size=       1KiB time=00:00:02.83 bitrate=   2.0kbits/s speed=0.0835x elapsed=0:00:33.93    \nframe=  172 fps=5.0 q=55.0 size=       1KiB time=00:00:02.85 bitrate=   2.0kbits/s speed=0.0823x elapsed=0:00:34.61    \nframe=  176 fps=5.0 q=55.0 size=       1KiB time=00:00:02.91 bitrate=   2.0kbits/s speed=0.0829x elapsed=0:00:35.20    \nframe=  180 fps=5.0 q=55.0 size=       1KiB time=00:00:02.98 bitrate=   1.9kbits/s speed=0.0834x elapsed=0:00:35.75    \nframe=  182 fps=5.0 q=56.0 size=       1KiB time=00:00:03.01 bitrate=   1.9kbits/s speed=0.0831x elapsed=0:00:36.32    \nframe=  184 fps=5.0 q=56.0 size=       1KiB time=00:00:03.05 bitrate=   1.9kbits/s speed=0.0824x elapsed=0:00:37.03    \nframe=  186 fps=4.9 q=56.0 size=       1KiB time=00:00:03.08 bitrate=   1.8kbits/s speed=0.0816x elapsed=0:00:37.77    \nframe=  188 fps=4.9 q=56.0 size=       1KiB time=00:00:03.11 bitrate=   1.8kbits/s speed=0.0811x elapsed=0:00:38.41    \nframe=  192 fps=4.9 q=56.0 size=       1KiB time=00:00:03.16 bitrate=   1.8kbits/s speed=0.0812x elapsed=0:00:39.00    \nframe=  197 fps=5.0 q=52.0 size=       1KiB time=00:00:03.26 bitrate=   1.7kbits/s speed=0.0825x elapsed=0:00:39.60    \nframe=  198 fps=4.9 q=59.0 size=       1KiB time=00:00:03.28 bitrate=   1.7kbits/s speed=0.0815x elapsed=0:00:40.29    \nframe=  200 fps=4.9 q=59.0 size=       1KiB time=00:00:03.31 bitrate=   1.7kbits/s speed=0.081x elapsed=0:00:40.96    \nframe=  205 fps=4.9 q=54.0 size=       1KiB time=00:00:03.40 bitrate=   1.7kbits/s speed=0.0815x elapsed=0:00:41.69    \nframe=  205 fps=4.8 q=54.0 size=       1KiB time=00:00:03.40 bitrate=   1.7kbits/s speed=0.0802x elapsed=0:00:42.39    \nframe=  209 fps=4.9 q=43.0 size=       1KiB time=00:00:03.46 bitrate=   1.6kbits/s speed=0.0807x elapsed=0:00:42.94    \nframe=  217 fps=5.0 q=53.0 size=       1KiB time=00:00:03.60 bitrate=   1.6kbits/s speed=0.0827x elapsed=0:00:43.51    \nframe=  217 fps=4.9 q=53.0 size=       1KiB time=00:00:03.60 bitrate=   1.6kbits/s speed=0.0818x elapsed=0:00:44.03    \nframe=  221 fps=5.0 q=55.0 size=       1KiB time=00:00:03.66 bitrate=   1.6kbits/s speed=0.0823x elapsed=0:00:44.55    \nframe=  225 fps=5.0 q=43.0 size=       1KiB time=00:00:03.73 bitrate=   1.5kbits/s speed=0.0829x elapsed=0:00:45.06    \nframe=  233 fps=5.1 q=54.0 size=       1KiB time=00:00:03.86 bitrate=   1.5kbits/s speed=0.0848x elapsed=0:00:45.60    \nframe=  233 fps=5.1 q=54.0 size=       1KiB time=00:00:03.86 bitrate=   1.5kbits/s speed=0.0838x elapsed=0:00:46.12    \nframe=  237 fps=5.1 q=57.0 size=       1KiB time=00:00:03.93 bitrate=   1.4kbits/s speed=0.0843x elapsed=0:00:46.66    \nframe=  245 fps=5.2 q=58.0 size=       1KiB time=00:00:04.06 bitrate=   1.4kbits/s speed=0.0861x elapsed=0:00:47.21    \nframe=  249 fps=5.2 q=57.0 size=       1KiB time=00:00:04.13 bitrate=   1.4kbits/s speed=0.0865x elapsed=0:00:47.75    \nframe=  253 fps=5.2 q=58.0 size=       1KiB time=00:00:04.20 bitrate=   1.4kbits/s speed=0.087x elapsed=0:00:48.28    \nframe=  257 fps=5.3 q=49.0 size=       1KiB time=00:00:04.26 bitrate=   1.3kbits/s speed=0.0874x elapsed=0:00:48.79    \nframe=  265 fps=5.4 q=57.0 size=       1KiB time=00:00:04.40 bitrate=   1.3kbits/s speed=0.0892x elapsed=0:00:49.31    \nframe=  265 fps=5.3 q=57.0 size=       1KiB time=00:00:04.40 bitrate=   1.3kbits/s speed=0.0883x elapsed=0:00:49.83    \nframe=  273 fps=5.4 q=49.0 size=       1KiB time=00:00:04.53 bitrate=   1.3kbits/s speed=0.09x elapsed=0:00:50.36    \nframe=  277 fps=5.4 q=58.0 size=       1KiB time=00:00:04.60 bitrate=   1.2kbits/s speed=0.0904x elapsed=0:00:50.87    \nframe=  281 fps=5.5 q=57.0 size=       1KiB time=00:00:04.66 bitrate=   1.2kbits/s speed=0.0908x elapsed=0:00:51.39    \nframe=  285 fps=5.5 q=59.0 size=       1KiB time=00:00:04.73 bitrate=   1.2kbits/s speed=0.0911x elapsed=0:00:51.93    \n[out#0/matroska @ 00000278c849cd80] video:1055KiB audio:0KiB subtitle:0KiB other streams:0KiB global headers:0KiB muxing overhead: 0.196635%\nframe=  300 fps=5.8 q=60.0 Lsize=    1057KiB time=00:00:04.98 bitrate=1737.5kbits/s speed=0.0958x elapsed=0:00:52.04    \n",
  "seconds": 52.56873869895935,
  "probe_out": {}
}